<?xml version="1.0" encoding="UTF-8"?>
<svg xmlns="http://www.w3.org/2000/svg" width="1600" height="1000" viewBox="0 0 1600 1000" role="img" aria-label="00 柔光线路 light background">
  
  <defs>
    <pattern id="soft-field-light-field" width="320" height="240" patternUnits="userSpaceOnUse">
      <path d="M 320 0 L 0 0 0 240" fill="none" stroke="#69aab8" stroke-width="1.2" opacity="0.18"/>
      <path d="M 160 0 V240 M 0 120 H320" fill="none" stroke="#d1e4e8" stroke-width="0.8" opacity="0.08"/>
    </pattern>
    <pattern id="soft-field-light-scan" width="1" height="42" patternUnits="userSpaceOnUse">
      <rect y="0" width="1" height="1" fill="#315766" opacity="0.08"/>
    </pattern>
    <filter id="soft-field-light-glow" x="-25%" y="-25%" width="150%" height="150%">
      <feGaussianBlur stdDeviation="3.2" result="blur"/>
      <feMerge>
        <feMergeNode in="blur"/>
        <feMergeNode in="SourceGraphic"/>
      </feMerge>
    </filter>
    <filter id="soft-field-light-soft-glow" x="-20%" y="-20%" width="140%" height="140%">
      <feGaussianBlur stdDeviation="8" result="blur"/>
      <feColorMatrix in="blur" type="matrix" values="1 0 0 0 0  0 1 0 0 0  0 0 1 0 0  0 0 0 .55 0" result="soft"/>
      <feMerge>
        <feMergeNode in="soft"/>
        <feMergeNode in="SourceGraphic"/>
      </feMerge>
    </filter>
    <linearGradient id="soft-field-light-edge" x1="0" y1="0" x2="1" y2="1">
      <stop offset="0" stop-color="#00a6c8" stop-opacity="0.34"/>
      <stop offset="0.52" stop-color="#f8fafc" stop-opacity="0"/>
      <stop offset="1" stop-color="#d73b78" stop-opacity="0.28"/>
    </linearGradient>
    <filter id="soft-field-light-grain">
      <feTurbulence type="fractalNoise" baseFrequency="0.9" numOctaves="2" seed="7"/>
      <feColorMatrix type="saturate" values="0"/>
      <feComponentTransfer>
        <feFuncA type="table" tableValues="0 0.08"/>
      </feComponentTransfer>
    </filter>
  </defs>

  <rect width="1600" height="1000" fill="#f1f8f7"/>
  
      <rect width="1600" height="1000" fill="url(#soft-field-light-edge)" opacity="0.56"/>
      <rect width="1600" height="1000" fill="url(#soft-field-light-field)" opacity="0.28"/>
      <g filter="url(#soft-field-light-soft-glow)" opacity="0.58">
        <path d="M92 238 H384 L438 292 H646 L708 354 H1030 L1092 416 H1478" fill="none" stroke="#00a6c8" stroke-width="2.2" stroke-linecap="square" stroke-linejoin="miter" opacity="0.58" />
        <path d="M146 806 H426 L492 744 H682 L742 682 H1034 L1112 606 H1450" fill="none" stroke="#dfb900" stroke-width="2.4" stroke-linecap="square" stroke-linejoin="miter" opacity="0.62" />
        <path d="M956 126 V278 L1018 340 V532 L1082 594 V842" fill="none" stroke="#d73b78" stroke-width="2" stroke-linecap="square" stroke-linejoin="miter" opacity="0.5" />
      </g>
      <g opacity="0.38">
        
  <rect x="429" y="283" width="18" height="18" rx="3" fill="rgba(255, 255, 255, .56)" opacity="0.42"/>
  <rect x="434" y="288" width="8" height="8" rx="1" fill="#00a6c8" opacity="1"/>

        
  <rect x="733" y="673" width="18" height="18" rx="3" fill="rgba(255, 255, 255, .56)" opacity="0.42"/>
  <rect x="738" y="678" width="8" height="8" rx="1" fill="#dfb900" opacity="1"/>

        
  <rect x="1009" y="331" width="18" height="18" rx="3" fill="rgba(255, 255, 255, .56)" opacity="0.42"/>
  <rect x="1014" y="336" width="8" height="8" rx="1" fill="#d73b78" opacity="1"/>

        <circle cx="1092" cy="416" r="4" fill="#00a6c8" opacity="0.76"/>
        <circle cx="1112" cy="606" r="4" fill="#dfb900" opacity="0.72"/>
      </g>
      <rect width="1600" height="1000" filter="url(#soft-field-light-grain)" opacity="0.58"/>
    
</svg>
