<svg xmlns="http://www.w3.org/2000/svg" width="1600" height="1000" viewBox="0 0 1600 1000" role="img" aria-label="Aurora Veil dark background">
  <defs>
    <linearGradient id="bg" x2="1" y2="1"><stop stop-color="#061514"/><stop offset=".48" stop-color="#0a1722"/><stop offset="1" stop-color="#160c1e"/></linearGradient>
    <linearGradient id="aurora" x1="0" y1=".5" x2="1" y2=".5"><stop stop-color="#65ffd1" stop-opacity="0"/><stop offset=".25" stop-color="#65ffd1" stop-opacity=".62"/><stop offset=".58" stop-color="#72a8ff" stop-opacity=".46"/><stop offset=".82" stop-color="#d779ff" stop-opacity=".58"/><stop offset="1" stop-color="#d779ff" stop-opacity="0"/></linearGradient>
    <filter id="blur"><feGaussianBlur stdDeviation="34"/></filter>
    <filter id="grain"><feTurbulence baseFrequency=".75" numOctaves="3" seed="8"/><feColorMatrix values="1 0 0 0 0 0 1 0 0 0 0 0 1 0 0 0 0 0 .08 0"/></filter>
  </defs>
  <rect width="1600" height="1000" fill="url(#bg)"/>
  <path d="M-120 270C180 80 390 410 670 220s480-40 650-150 310 80 420 10" fill="none" stroke="url(#aurora)" stroke-width="150" filter="url(#blur)"/>
  <path d="M-80 770c300-250 520 30 790-120s470-30 650 90 310-40 380-130" fill="none" stroke="url(#aurora)" stroke-width="110" opacity=".55" filter="url(#blur)"/>
  <ellipse cx="1230" cy="510" rx="260" ry="180" fill="#5d65ff" opacity=".08" filter="url(#blur)"/>
  <g fill="#c8fff1" opacity=".42"><circle cx="198" cy="154" r="2"/><circle cx="463" cy="698" r="1.5"/><circle cx="909" cy="162" r="1.4"/><circle cx="1320" cy="281" r="2"/><circle cx="1140" cy="842" r="1.6"/><circle cx="1518" cy="612" r="1.2"/></g>
  <rect width="1600" height="1000" filter="url(#grain)" opacity=".35"/>
</svg>
