<svg xmlns="http://www.w3.org/2000/svg" width="1600" height="1000" viewBox="0 0 1600 1000" role="img" aria-label="Starport Horizon light background">
  <defs><linearGradient id="sky" x2="0" y2="1"><stop stop-color="#edf5ff"/><stop offset=".58" stop-color="#e8e8fb"/><stop offset="1" stop-color="#f8f4f5"/></linearGradient><linearGradient id="h"><stop stop-color="#1689a8" stop-opacity="0"/><stop offset=".5" stop-color="#1689a8" stop-opacity=".6"/><stop offset="1" stop-color="#8e4aaa" stop-opacity="0"/></linearGradient></defs>
  <rect width="1600" height="1000" fill="url(#sky)"/>
  <g fill="#45617e" opacity=".38"><circle cx="120" cy="118" r="1.4"/><circle cx="274" cy="236" r="1"/><circle cx="420" cy="82" r="1.6"/><circle cx="830" cy="94" r="1.2"/><circle cx="1280" cy="92" r="1"/><circle cx="1490" cy="250" r="1.6"/></g>
  <path d="M0 520h1600" stroke="url(#h)" stroke-width="3"/>
  <g fill="none" stroke="#5366ac" stroke-opacity=".18"><path d="M800 520L120 1000"/><path d="M800 520L380 1000"/><path d="M800 520L620 1000"/><path d="M800 520L980 1000"/><path d="M800 520L1220 1000"/><path d="M800 520L1480 1000"/><path d="M0 620h1600"/><path d="M0 750h1600"/><path d="M0 910h1600"/></g>
  <path d="M775 560l-18 62h86l-18-62zM730 690l-28 86h196l-28-86zM658 850l-44 118h372l-44-118z" fill="#218da4" opacity=".3"/>
</svg>
