<svg xmlns="http://www.w3.org/2000/svg" width="1600" height="1000" viewBox="0 0 1600 1000" role="img" aria-label="Starport Horizon dark background">
  <defs>
    <linearGradient id="sky" x2="0" y2="1"><stop stop-color="#050818"/><stop offset=".58" stop-color="#101631"/><stop offset="1" stop-color="#090b18"/></linearGradient>
    <linearGradient id="horizon"><stop stop-color="#00e7ff" stop-opacity="0"/><stop offset=".5" stop-color="#00e7ff"/><stop offset="1" stop-color="#be4dff" stop-opacity="0"/></linearGradient>
    <radialGradient id="glow"><stop stop-color="#765cff" stop-opacity=".32"/><stop offset="1" stop-color="#765cff" stop-opacity="0"/></radialGradient>
  </defs>
  <rect width="1600" height="1000" fill="url(#sky)"/>
  <ellipse cx="800" cy="520" rx="680" ry="280" fill="url(#glow)"/>
  <g fill="#d8edff"><circle cx="120" cy="118" r="1.4"/><circle cx="274" cy="236" r="1"/><circle cx="420" cy="82" r="1.6"/><circle cx="606" cy="190" r="1"/><circle cx="830" cy="94" r="1.2"/><circle cx="1040" cy="214" r="1.5"/><circle cx="1280" cy="92" r="1"/><circle cx="1490" cy="250" r="1.6"/></g>
  <path d="M0 520h1600" stroke="url(#horizon)" stroke-width="3"/>
  <g fill="none" stroke="#5d78ff" stroke-opacity=".3"><path d="M800 520L120 1000"/><path d="M800 520L380 1000"/><path d="M800 520L620 1000"/><path d="M800 520L980 1000"/><path d="M800 520L1220 1000"/><path d="M800 520L1480 1000"/></g>
  <g stroke="#00d9ff" stroke-opacity=".18"><path d="M0 620h1600"/><path d="M0 750h1600"/><path d="M0 910h1600"/></g>
  <path d="M775 560l-18 62h86l-18-62zM730 690l-28 86h196l-28-86zM658 850l-44 118h372l-44-118z" fill="#b8f7ff" opacity=".5"/>
  <g fill="#ffcc68"><circle cx="240" cy="520" r="3"/><circle cx="1360" cy="520" r="3"/></g>
</svg>
