<svg xmlns="http://www.w3.org/2000/svg" width="1600" height="1000" viewBox="0 0 1600 1000" role="img" aria-label="Isometric Vault light background">
  <defs><linearGradient id="bg" x2="1" y2="1"><stop stop-color="#eff6f4"/><stop offset="1" stop-color="#f7eef6"/></linearGradient><filter id="shadow"><feDropShadow dx="0" dy="16" stdDeviation="14" flood-color="#456" flood-opacity=".14"/></filter></defs>
  <rect width="1600" height="1000" fill="url(#bg)"/>
  <g transform="translate(800 485)" stroke-linejoin="round" filter="url(#shadow)">
    <g transform="translate(-520 -120)"><path d="M0 90 150 0l150 90-150 90z" fill="#cbe9e7" stroke="#349aa0" stroke-opacity=".35"/><path d="m0 90 150 90v170L0 260z" fill="#d9eeec"/><path d="m300 90-150 90v170l150-90z" fill="#bcdeda"/></g>
    <g transform="translate(-180 -260)"><path d="M0 90 150 0l150 90-150 90z" fill="#ded7f0" stroke="#735fa7" stroke-opacity=".3"/><path d="m0 90 150 90v270L0 360z" fill="#ebe6f4"/><path d="m300 90-150 90v270l150-90z" fill="#cec5e3"/></g>
    <g transform="translate(170 -70)"><path d="M0 90 150 0l150 90-150 90z" fill="#eed8e5" stroke="#a55983" stroke-opacity=".3"/><path d="m0 90 150 90v210L0 300z" fill="#f5e7ef"/><path d="m300 90-150 90v210l150-90z" fill="#dfc5d5"/></g>
    <g transform="translate(-90 250) scale(.72)"><path d="M0 90 150 0l150 90-150 90z" fill="#dce8cc"/><path d="m0 90 150 90v150L0 240z" fill="#e8efdd"/><path d="m300 90-150 90v150l150-90z" fill="#cad9b7"/></g>
  </g>
</svg>
