<svg xmlns="http://www.w3.org/2000/svg" width="1600" height="1000" viewBox="0 0 1600 1000" role="img" aria-label="Isometric Vault dark background">
  <defs><linearGradient id="bg" x2="1" y2="1"><stop stop-color="#07141d"/><stop offset="1" stop-color="#15101d"/></linearGradient><filter id="shadow"><feDropShadow dx="0" dy="18" stdDeviation="16" flood-color="#000" flood-opacity=".36"/></filter></defs>
  <rect width="1600" height="1000" fill="url(#bg)"/>
  <g transform="translate(800 485)" stroke-linejoin="round" filter="url(#shadow)">
    <g transform="translate(-520 -120)"><path d="M0 90 150 0l150 90-150 90z" fill="#17394a" stroke="#49d9dd" stroke-opacity=".42"/><path d="m0 90 150 90v170L0 260z" fill="#0b202c"/><path d="m300 90-150 90v170l150-90z" fill="#102b38"/></g>
    <g transform="translate(-180 -260)"><path d="M0 90 150 0l150 90-150 90z" fill="#2b2850" stroke="#a986ff" stroke-opacity=".48"/><path d="m0 90 150 90v270L0 360z" fill="#17182f"/><path d="m300 90-150 90v270l150-90z" fill="#20203b"/></g>
    <g transform="translate(170 -70)"><path d="M0 90 150 0l150 90-150 90z" fill="#3b2942" stroke="#ff76c8" stroke-opacity=".42"/><path d="m0 90 150 90v210L0 300z" fill="#251827"/><path d="m300 90-150 90v210l150-90z" fill="#301d32"/></g>
    <g transform="translate(-90 250) scale(.72)"><path d="M0 90 150 0l150 90-150 90z" fill="#283c32" stroke="#c4f477" stroke-opacity=".4"/><path d="m0 90 150 90v150L0 240z" fill="#17251d"/><path d="m300 90-150 90v150l150-90z" fill="#1d2f24"/></g>
  </g>
  <g fill="none" stroke="#8edce4" stroke-opacity=".09"><path d="M0 780 800 300l800 480"/><path d="M0 900 800 420l800 480"/></g>
</svg>
