<svg xmlns="http://www.w3.org/2000/svg" width="1600" height="1000" viewBox="0 0 1600 1000" role="img" aria-label="Orbital Atlas dark background">
  <defs><radialGradient id="bg"><stop stop-color="#16233a"/><stop offset=".6" stop-color="#090f1e"/><stop offset="1" stop-color="#050812"/></radialGradient><radialGradient id="planet" cx="35%" cy="28%"><stop stop-color="#b9f7ff"/><stop offset=".3" stop-color="#3778a2"/><stop offset="1" stop-color="#142441"/></radialGradient><filter id="glow"><feGaussianBlur stdDeviation="7"/></filter></defs>
  <rect width="1600" height="1000" fill="url(#bg)"/>
  <g transform="translate(990 500) rotate(-12)" fill="none">
    <ellipse rx="520" ry="205" stroke="#6bcdf1" stroke-opacity=".28" stroke-width="2"/>
    <ellipse rx="390" ry="145" stroke="#ad7cff" stroke-opacity=".25"/>
    <ellipse rx="260" ry="92" stroke="#6bcdf1" stroke-opacity=".22"/>
    <circle r="112" fill="url(#planet)" stroke="#b8efff" stroke-opacity=".32"/>
    <circle cx="-365" cy="-103" r="12" fill="#ffce71"/>
    <circle cx="268" cy="-78" r="8" fill="#d681ff"/>
    <circle cx="466" cy="72" r="5" fill="#72f4d0"/>
  </g>
  <g stroke="#8dc9e8" stroke-opacity=".18" fill="none"><circle cx="250" cy="210" r="110"/><path d="M140 210h220M250 100v220"/><circle cx="250" cy="210" r="4" fill="#8dc9e8"/><path d="M180 785l120-120 145 44 110-160"/></g>
  <g fill="#bcecff" opacity=".45"><circle cx="92" cy="96" r="1.4"/><circle cx="360" cy="440" r="1"/><circle cx="570" cy="145" r="1.5"/><circle cx="720" cy="780" r="1"/><circle cx="1320" cy="176" r="1.4"/><circle cx="1470" cy="690" r="1.2"/></g>
  <g fill="#7fd8f2" opacity=".38" font-family="monospace" font-size="15"><text x="115" y="410">RA 17h 42m</text><text x="1280" y="835">ORBIT 04 / 72°</text><text x="80" y="860">CELESTIAL GRID</text></g>
</svg>
