<svg xmlns="http://www.w3.org/2000/svg" width="1600" height="1000" viewBox="0 0 1600 1000" role="img" aria-label="Digital Grove dark background">
  <defs><linearGradient id="bg" x2="0" y2="1"><stop stop-color="#030b0a"/><stop offset=".55" stop-color="#071611"/><stop offset="1" stop-color="#020706"/></linearGradient><linearGradient id="fade" x2="0" y2="1"><stop stop-color="#a2ffba" stop-opacity="0"/><stop offset=".2" stop-color="#54f58c" stop-opacity=".72"/><stop offset="1" stop-color="#14a95a" stop-opacity="0"/></linearGradient><filter id="soft"><feGaussianBlur stdDeviation="4"/></filter></defs>
  <rect width="1600" height="1000" fill="url(#bg)"/>
  <g stroke="url(#fade)" stroke-width="2" opacity=".65"><path d="M90-80v650"/><path d="M210 40v830"/><path d="M380-160v720"/><path d="M540 120v760"/><path d="M710-40v880"/><path d="M900-170v790"/><path d="M1080 70v820"/><path d="M1240-90v710"/><path d="M1440 40v850"/></g>
  <g fill="#72f8a0" font-family="monospace" font-size="17" opacity=".58"><text x="78" y="180">0101</text><text x="195" y="360">NODE</text><text x="365" y="120">1100</text><text x="523" y="520">DATA</text><text x="694" y="280">0110</text><text x="884" y="160">ROOT</text><text x="1064" y="450">1011</text><text x="1224" y="250">FLOW</text><text x="1424" y="610">0010</text></g>
  <g filter="url(#soft)" opacity=".26" stroke="#37e878" stroke-width="18"><path d="M210 210v540"/><path d="M710 160v570"/><path d="M1240 190v520"/></g>
  <path d="M0 780c260-70 410 80 650 10s420-30 570 25 260 10 380-45v230H0z" fill="#0b2519"/>
  <g fill="#6bff9d" opacity=".15"><circle cx="150" cy="760" r="90"/><circle cx="470" cy="820" r="130"/><circle cx="870" cy="770" r="110"/><circle cx="1320" cy="800" r="150"/></g>
</svg>
