<?xml version="1.0" encoding="UTF-8"?>
<svg xmlns="http://www.w3.org/2000/svg" width="1600" height="1000" viewBox="0 0 1600 1000" role="img" aria-label="04 霓虹雨幕 dark background">
  
  <defs>
    <pattern id="data-rain-dark-micro" width="12" height="12" patternUnits="userSpaceOnUse">
      <path d="M 12 0 L 0 0 0 12" fill="none" stroke="#0c5164" stroke-width="0.75" opacity="0.42"/>
    </pattern>
    <pattern id="data-rain-dark-grid" width="96" height="96" patternUnits="userSpaceOnUse">
      <rect width="96" height="96" fill="url(#data-rain-dark-micro)"/>
      <path d="M 96 0 L 0 0 0 96" fill="none" stroke="#00e7ff" stroke-width="1.1" opacity="0.7"/>
    </pattern>
    <pattern id="data-rain-dark-scan" width="1" height="6" patternUnits="userSpaceOnUse">
      <rect y="0" width="1" height="1" fill="#ffffff" opacity="0.42"/>
    </pattern>
    <filter id="data-rain-dark-glow" x="-25%" y="-25%" width="150%" height="150%">
      <feGaussianBlur stdDeviation="3.2" result="blur"/>
      <feMerge>
        <feMergeNode in="blur"/>
        <feMergeNode in="SourceGraphic"/>
      </feMerge>
    </filter>
    <filter id="data-rain-dark-soft-glow" x="-20%" y="-20%" width="140%" height="140%">
      <feGaussianBlur stdDeviation="8" result="blur"/>
      <feColorMatrix in="blur" type="matrix" values="1 0 0 0 0  0 1 0 0 0  0 0 1 0 0  0 0 0 .55 0" result="soft"/>
      <feMerge>
        <feMergeNode in="soft"/>
        <feMergeNode in="SourceGraphic"/>
      </feMerge>
    </filter>
    <linearGradient id="data-rain-dark-edge" x1="0" y1="0" x2="1" y2="1">
      <stop offset="0" stop-color="#00f5ff" stop-opacity="0.34"/>
      <stop offset="0.52" stop-color="#111827" stop-opacity="0"/>
      <stop offset="1" stop-color="#ff3b8d" stop-opacity="0.28"/>
    </linearGradient>
    <filter id="data-rain-dark-grain">
      <feTurbulence type="fractalNoise" baseFrequency="0.86" numOctaves="2" seed="7"/>
      <feColorMatrix type="saturate" values="0"/>
      <feComponentTransfer>
        <feFuncA type="table" tableValues="0 0.08"/>
      </feComponentTransfer>
    </filter>
  </defs>

  <rect width="1600" height="1000" fill="#070a12"/>
  
      <rect width="1600" height="1000" fill="url(#data-rain-dark-grid)" opacity="0.2"/>
      <g filter="url(#data-rain-dark-soft-glow)">
        <path d="M42 28 v96" stroke="#fcee0a" stroke-width="2" opacity="0.15" stroke-dasharray="8 14"/>
<path d="M79 101 v127" stroke="#00f5ff" stroke-width="1" opacity="0.185" stroke-dasharray="12 22"/>
<path d="M116 174 v158" stroke="#00f5ff" stroke-width="1" opacity="0.22" stroke-dasharray="16 30"/>
<path d="M153 247 v189" stroke="#00f5ff" stroke-width="1" opacity="0.255" stroke-dasharray="20 38"/>
<path d="M190 320 v220" stroke="#ff3b8d" stroke-width="1" opacity="0.29000000000000004" stroke-dasharray="24 14"/>
<path d="M227 393 v251" stroke="#fcee0a" stroke-width="1" opacity="0.325" stroke-dasharray="8 22"/>
<path d="M264 466 v282" stroke="#00f5ff" stroke-width="1" opacity="0.15" stroke-dasharray="12 30"/>
<path d="M301 539 v313" stroke="#00f5ff" stroke-width="2" opacity="0.185" stroke-dasharray="16 38"/>
<path d="M338 612 v124" stroke="#ff3b8d" stroke-width="1" opacity="0.22" stroke-dasharray="20 14"/>
<path d="M375 685 v155" stroke="#00f5ff" stroke-width="1" opacity="0.255" stroke-dasharray="24 22"/>
<path d="M412 758 v186" stroke="#fcee0a" stroke-width="1" opacity="0.29000000000000004" stroke-dasharray="8 30"/>
<path d="M449 71 v217" stroke="#00f5ff" stroke-width="1" opacity="0.325" stroke-dasharray="12 38"/>
<path d="M486 144 v248" stroke="#ff3b8d" stroke-width="1" opacity="0.15" stroke-dasharray="16 14"/>
<path d="M523 217 v279" stroke="#00f5ff" stroke-width="1" opacity="0.185" stroke-dasharray="20 22"/>
<path d="M560 290 v310" stroke="#00f5ff" stroke-width="2" opacity="0.22" stroke-dasharray="24 30"/>
<path d="M597 363 v121" stroke="#fcee0a" stroke-width="1" opacity="0.255" stroke-dasharray="8 38"/>
<path d="M634 436 v152" stroke="#ff3b8d" stroke-width="1" opacity="0.29000000000000004" stroke-dasharray="12 14"/>
<path d="M671 509 v183" stroke="#00f5ff" stroke-width="1" opacity="0.325" stroke-dasharray="16 22"/>
<path d="M708 582 v214" stroke="#00f5ff" stroke-width="1" opacity="0.15" stroke-dasharray="20 30"/>
<path d="M745 655 v245" stroke="#00f5ff" stroke-width="1" opacity="0.185" stroke-dasharray="24 38"/>
<path d="M782 728 v276" stroke="#fcee0a" stroke-width="1" opacity="0.22" stroke-dasharray="8 14"/>
<path d="M819 41 v307" stroke="#00f5ff" stroke-width="2" opacity="0.255" stroke-dasharray="12 22"/>
<path d="M856 114 v118" stroke="#00f5ff" stroke-width="1" opacity="0.29000000000000004" stroke-dasharray="16 30"/>
<path d="M893 187 v149" stroke="#00f5ff" stroke-width="1" opacity="0.325" stroke-dasharray="20 38"/>
<path d="M930 260 v180" stroke="#ff3b8d" stroke-width="1" opacity="0.15" stroke-dasharray="24 14"/>
<path d="M967 333 v211" stroke="#fcee0a" stroke-width="1" opacity="0.185" stroke-dasharray="8 22"/>
<path d="M1004 406 v242" stroke="#00f5ff" stroke-width="1" opacity="0.22" stroke-dasharray="12 30"/>
<path d="M1041 479 v273" stroke="#00f5ff" stroke-width="1" opacity="0.255" stroke-dasharray="16 38"/>
<path d="M1078 552 v304" stroke="#ff3b8d" stroke-width="2" opacity="0.29000000000000004" stroke-dasharray="20 14"/>
<path d="M1115 625 v115" stroke="#00f5ff" stroke-width="1" opacity="0.325" stroke-dasharray="24 22"/>
<path d="M1152 698 v146" stroke="#fcee0a" stroke-width="1" opacity="0.15" stroke-dasharray="8 30"/>
<path d="M1189 771 v177" stroke="#00f5ff" stroke-width="1" opacity="0.185" stroke-dasharray="12 38"/>
<path d="M1226 84 v208" stroke="#ff3b8d" stroke-width="1" opacity="0.22" stroke-dasharray="16 14"/>
<path d="M1263 157 v239" stroke="#00f5ff" stroke-width="1" opacity="0.255" stroke-dasharray="20 22"/>
<path d="M1300 230 v270" stroke="#00f5ff" stroke-width="1" opacity="0.29000000000000004" stroke-dasharray="24 30"/>
<path d="M1337 303 v301" stroke="#fcee0a" stroke-width="2" opacity="0.325" stroke-dasharray="8 38"/>
<path d="M1374 376 v112" stroke="#ff3b8d" stroke-width="1" opacity="0.15" stroke-dasharray="12 14"/>
<path d="M1411 449 v143" stroke="#00f5ff" stroke-width="1" opacity="0.185" stroke-dasharray="16 22"/>
<path d="M1448 522 v174" stroke="#00f5ff" stroke-width="1" opacity="0.22" stroke-dasharray="20 30"/>
<path d="M1485 595 v205" stroke="#00f5ff" stroke-width="1" opacity="0.255" stroke-dasharray="24 38"/>
<path d="M1522 668 v236" stroke="#fcee0a" stroke-width="1" opacity="0.29000000000000004" stroke-dasharray="8 14"/>
<path d="M1559 741 v267" stroke="#00f5ff" stroke-width="1" opacity="0.325" stroke-dasharray="12 22"/>
<path d="M1596 54 v298" stroke="#00f5ff" stroke-width="2" opacity="0.15" stroke-dasharray="16 30"/>
<path d="M1633 127 v109" stroke="#00f5ff" stroke-width="1" opacity="0.185" stroke-dasharray="20 38"/>
      </g>
      <g filter="url(#data-rain-dark-glow)" opacity="0.8">
        <polyline points="0,176 360,176 404,222 746,222 798,176 1600,176" fill="none" stroke="#00f5ff" stroke-width="2.1" stroke-linecap="square" stroke-linejoin="miter" opacity="0.62" />
        <polyline points="0,822 268,822 328,758 610,758 686,822 1600,822" fill="none" stroke="#fcee0a" stroke-width="2.5" stroke-linecap="square" stroke-linejoin="miter" opacity="0.58" />
        <polyline points="1004,0 1004,286 1068,348 1068,706 1138,780 1138,1000" fill="none" stroke="#ff3b8d" stroke-width="2.2" stroke-linecap="square" stroke-linejoin="miter" opacity="0.56" />
      </g>
      <g opacity="0.62">
        
  <rect x="395" y="213" width="18" height="18" rx="3" fill="rgba(5, 10, 18, .68)" opacity="0.42"/>
  <rect x="400" y="218" width="8" height="8" rx="1" fill="#00f5ff" opacity="1"/>

        
  <rect x="677" y="813" width="18" height="18" rx="3" fill="rgba(5, 10, 18, .68)" opacity="0.42"/>
  <rect x="682" y="818" width="8" height="8" rx="1" fill="#fcee0a" opacity="1"/>

        
  <rect x="1059" y="339" width="18" height="18" rx="3" fill="rgba(5, 10, 18, .68)" opacity="0.42"/>
  <rect x="1064" y="344" width="8" height="8" rx="1" fill="#ff3b8d" opacity="1"/>

        <circle cx="1252" cy="176" r="4" fill="#00f5ff" opacity="0.85"/>
        <circle cx="1408" cy="822" r="4" fill="#fcee0a" opacity="0.75"/>
      </g>
      <rect width="1600" height="1000" fill="url(#data-rain-dark-scan)" opacity="0.34"/>
      <rect width="1600" height="1000" filter="url(#data-rain-dark-grain)" opacity="0.8"/>
    
</svg>
