<svg xmlns="http://www.w3.org/2000/svg" width="1600" height="1000" viewBox="0 0 1600 1000" role="img" aria-label="Digital Grove light background">
  <defs><linearGradient id="bg" x2="0" y2="1"><stop stop-color="#edf7f0"/><stop offset="1" stop-color="#e5efe8"/></linearGradient><linearGradient id="fade" x2="0" y2="1"><stop stop-color="#17844a" stop-opacity="0"/><stop offset=".25" stop-color="#17844a" stop-opacity=".4"/><stop offset="1" stop-color="#17844a" stop-opacity="0"/></linearGradient></defs>
  <rect width="1600" height="1000" fill="url(#bg)"/>
  <g stroke="url(#fade)" stroke-width="2"><path d="M90-80v650"/><path d="M210 40v830"/><path d="M380-160v720"/><path d="M540 120v760"/><path d="M710-40v880"/><path d="M900-170v790"/><path d="M1080 70v820"/><path d="M1240-90v710"/><path d="M1440 40v850"/></g>
  <g fill="#26764b" font-family="monospace" font-size="17" opacity=".38"><text x="78" y="180">0101</text><text x="195" y="360">NODE</text><text x="365" y="120">1100</text><text x="523" y="520">DATA</text><text x="694" y="280">0110</text><text x="884" y="160">ROOT</text><text x="1064" y="450">1011</text><text x="1224" y="250">FLOW</text><text x="1424" y="610">0010</text></g>
  <path d="M0 780c260-70 410 80 650 10s420-30 570 25 260 10 380-45v230H0z" fill="#d8e8dc"/>
  <g fill="#6aab7c" opacity=".11"><circle cx="150" cy="760" r="90"/><circle cx="470" cy="820" r="130"/><circle cx="870" cy="770" r="110"/><circle cx="1320" cy="800" r="150"/></g>
</svg>
