<?xml version="1.0" encoding="UTF-8"?>
<svg xmlns="http://www.w3.org/2000/svg" width="1600" height="1000" viewBox="0 0 1600 1000" role="img" aria-label="05 橙核矩阵 light background">
  
  <defs>
    <pattern id="orange-core-light-micro" width="12" height="12" patternUnits="userSpaceOnUse">
      <path d="M 12 0 L 0 0 0 12" fill="none" stroke="#d1e4e8" stroke-width="0.75" opacity="0.42"/>
    </pattern>
    <pattern id="orange-core-light-grid" width="96" height="96" patternUnits="userSpaceOnUse">
      <rect width="96" height="96" fill="url(#orange-core-light-micro)"/>
      <path d="M 96 0 L 0 0 0 96" fill="none" stroke="#69aab8" stroke-width="1.1" opacity="0.7"/>
    </pattern>
    <pattern id="orange-core-light-scan" width="1" height="6" patternUnits="userSpaceOnUse">
      <rect y="0" width="1" height="1" fill="#315766" opacity="0.42"/>
    </pattern>
    <filter id="orange-core-light-glow" x="-25%" y="-25%" width="150%" height="150%">
      <feGaussianBlur stdDeviation="3.2" result="blur"/>
      <feMerge>
        <feMergeNode in="blur"/>
        <feMergeNode in="SourceGraphic"/>
      </feMerge>
    </filter>
    <filter id="orange-core-light-soft-glow" x="-20%" y="-20%" width="140%" height="140%">
      <feGaussianBlur stdDeviation="8" result="blur"/>
      <feColorMatrix in="blur" type="matrix" values="1 0 0 0 0  0 1 0 0 0  0 0 1 0 0  0 0 0 .55 0" result="soft"/>
      <feMerge>
        <feMergeNode in="soft"/>
        <feMergeNode in="SourceGraphic"/>
      </feMerge>
    </filter>
    <linearGradient id="orange-core-light-edge" x1="0" y1="0" x2="1" y2="1">
      <stop offset="0" stop-color="#f97316" stop-opacity="0.34"/>
      <stop offset="0.52" stop-color="#00a6c8" stop-opacity="0"/>
      <stop offset="1" stop-color="#d73b78" stop-opacity="0.28"/>
    </linearGradient>
    <filter id="orange-core-light-grain">
      <feTurbulence type="fractalNoise" baseFrequency="0.9" numOctaves="2" seed="7"/>
      <feColorMatrix type="saturate" values="0"/>
      <feComponentTransfer>
        <feFuncA type="table" tableValues="0 0.08"/>
      </feComponentTransfer>
    </filter>
  </defs>

  <rect width="1600" height="1000" fill="#f2f7f5"/>
  
      <rect width="1600" height="1000" fill="url(#orange-core-light-grid)" opacity="0.26"/>
      <g opacity="0.2">
        <path d="M0 0 H1600 V1000 H0 Z M128 126 H1472 V874 H128 Z" fill="#f97316" fill-rule="evenodd" opacity="0.12"/>
        <path d="M128 126 H1472 V874 H128 Z" fill="#f8fcfb" opacity="0.38"/>
        <path d="M128 126 H1472 V874 H128 Z" fill="none" stroke="#00a6c8" stroke-width="1.1"/>
        <path d="M128 126 H1472 V874 H128 Z" fill="none" stroke="#f97316" stroke-width="10" stroke-dasharray="260 120 44 180" opacity="0.24"/>
      </g>
      <g filter="url(#orange-core-light-soft-glow)">
        <path d="M190 794 H470 L536 732 H730 L798 664 H1010 L1082 594 H1416" fill="none" stroke="#f97316" stroke-width="3.1" stroke-linecap="square" stroke-linejoin="miter" opacity="0.72" />
        <path d="M162 240 H470 L540 306 H766 L832 370 H1058 L1124 436 H1438" fill="none" stroke="#00a6c8" stroke-width="2.3" stroke-linecap="square" stroke-linejoin="miter" opacity="0.62" />
        <path d="M806 150 V312 L742 374 V554 L674 624 V852" fill="none" stroke="#d73b78" stroke-width="2.4" stroke-linecap="square" stroke-linejoin="miter" opacity="0.58" />
      </g>
      <g opacity="0.56">
        
  <rect x="527" y="723" width="18" height="18" rx="3" fill="rgba(255, 255, 255, .56)" opacity="0.42"/>
  <rect x="532" y="728" width="8" height="8" rx="1" fill="#f97316" opacity="1"/>

        
  <rect x="823" y="361" width="18" height="18" rx="3" fill="rgba(255, 255, 255, .56)" opacity="0.42"/>
  <rect x="828" y="366" width="8" height="8" rx="1" fill="#00a6c8" opacity="1"/>

        
  <rect x="1073" y="585" width="18" height="18" rx="3" fill="rgba(255, 255, 255, .56)" opacity="0.42"/>
  <rect x="1078" y="590" width="8" height="8" rx="1" fill="#d73b78" opacity="1"/>

        
  <rect x="733" y="365" width="18" height="18" rx="3" fill="rgba(255, 255, 255, .56)" opacity="0.42"/>
  <rect x="738" y="370" width="8" height="8" rx="1" fill="#dfb900" opacity="1"/>

        <circle cx="1010" cy="664" r="5" fill="#f97316" opacity="0.9"/>
        <circle cx="470" cy="240" r="4" fill="#00a6c8" opacity="0.84"/>
      </g>
      <g opacity="0.15">
        <path d="M128 126 l66 66 M1472 126 l-66 66 M128 874 l66 -66 M1472 874 l-66 -66" stroke="#dfb900" stroke-width="2" fill="none"/>
        <rect x="620" y="462" width="360" height="92" fill="none" stroke="#f97316" stroke-width="1"/>
        <path d="M620 508 H980 M800 462 V554" stroke="#00a6c8" stroke-width="1"/>
      </g>
      <rect width="1600" height="1000" fill="url(#orange-core-light-scan)" opacity="0.1"/>
      <rect width="1600" height="1000" filter="url(#orange-core-light-grain)" opacity="0.7"/>
    
</svg>
