<svg xmlns="http://www.w3.org/2000/svg" width="1600" height="1000" viewBox="0 0 1600 1000" role="img" aria-label="Lunar Dunes dark background">
  <defs><linearGradient id="sky" x2="0" y2="1"><stop stop-color="#090d1e"/><stop offset=".68" stop-color="#23213a"/><stop offset="1" stop-color="#3c2635"/></linearGradient><radialGradient id="moon"><stop stop-color="#fffde5"/><stop offset=".7" stop-color="#d9dbef"/><stop offset="1" stop-color="#8d93bd"/></radialGradient></defs>
  <rect width="1600" height="1000" fill="url(#sky)"/>
  <circle cx="1220" cy="230" r="118" fill="url(#moon)" opacity=".9"/><circle cx="1182" cy="204" r="18" fill="#9ca1bf" opacity=".22"/><circle cx="1260" cy="260" r="27" fill="#9ca1bf" opacity=".16"/>
  <g fill="#dce7ff" opacity=".55"><circle cx="120" cy="130" r="1.4"/><circle cx="290" cy="246" r="1"/><circle cx="480" cy="104" r="1.6"/><circle cx="720" cy="280" r="1"/><circle cx="920" cy="118" r="1.2"/><circle cx="1460" cy="164" r="1.4"/></g>
  <path d="M0 620c250-130 470-70 700 30s440 40 900-80v430H0z" fill="#24233a"/><path d="M0 750c320-160 600-30 840 80s480 10 760-90v260H0z" fill="#171a2d"/><path d="M0 870c350-100 650 30 900 40s480-60 700-20v110H0z" fill="#0d1120"/>
  <g fill="none" stroke="#dcbb8e" stroke-opacity=".12"><path d="M50 805c300-90 560 10 800 55s450-40 700-80"/><path d="M120 920c280-70 520 0 760 24s430-20 620-10"/></g>
</svg>
