<svg xmlns="http://www.w3.org/2000/svg" width="1600" height="1000" viewBox="0 0 1600 1000" role="img" aria-label="Lunar Dunes light background">
  <defs><linearGradient id="sky" x2="0" y2="1"><stop stop-color="#edf4fb"/><stop offset=".68" stop-color="#e8e1eb"/><stop offset="1" stop-color="#efd7d1"/></linearGradient><radialGradient id="moon"><stop stop-color="#fffdf0"/><stop offset="1" stop-color="#c9cfdf"/></radialGradient></defs>
  <rect width="1600" height="1000" fill="url(#sky)"/>
  <circle cx="1220" cy="230" r="118" fill="url(#moon)" opacity=".9"/>
  <path d="M0 620c250-130 470-70 700 30s440 40 900-80v430H0z" fill="#d8d0dc"/><path d="M0 750c320-160 600-30 840 80s480 10 760-90v260H0z" fill="#c6c3d2"/><path d="M0 870c350-100 650 30 900 40s480-60 700-20v110H0z" fill="#b5b6c8"/>
  <g fill="none" stroke="#876e68" stroke-opacity=".12"><path d="M50 805c300-90 560 10 800 55s450-40 700-80"/><path d="M120 920c280-70 520 0 760 24s430-20 620-10"/></g>
</svg>
