<svg xmlns="http://www.w3.org/2000/svg" width="1600" height="1000" viewBox="0 0 1600 1000" role="img" aria-label="Ink Current light background">
  <defs><linearGradient id="paper" x2="1" y2="1"><stop stop-color="#f5f2e9"/><stop offset="1" stop-color="#e9ece7"/></linearGradient><filter id="ink"><feTurbulence baseFrequency=".012 .028" numOctaves="3" seed="17"/><feDisplacementMap in="SourceGraphic" scale="24"/></filter><filter id="grain"><feTurbulence baseFrequency=".7" numOctaves="3"/><feColorMatrix values="1 0 0 0 0 0 1 0 0 0 0 0 1 0 0 0 0 0 .04 0"/></filter></defs>
  <rect width="1600" height="1000" fill="url(#paper)"/>
  <g fill="none" stroke-linecap="round" filter="url(#ink)"><path d="M-100 690c250-260 430 190 680-40s390 130 600-80 360 20 520-130" stroke="#29342f" stroke-opacity=".18" stroke-width="80"/><path d="M-80 820c280-210 430 120 670-60s380 100 590-50 320 20 500-100" stroke="#456e64" stroke-opacity=".2" stroke-width="34"/><path d="M40 905c230-130 440 70 670-55s430 30 700-100" stroke="#26352f" stroke-opacity=".12" stroke-width="12"/></g>
  <circle cx="1260" cy="230" r="86" fill="#a94538" opacity=".38"/><path d="M1260 170v120M1200 230h120" stroke="#fff4e4" stroke-opacity=".42"/>
  <rect width="1600" height="1000" filter="url(#grain)"/>
</svg>
