<svg xmlns="http://www.w3.org/2000/svg" width="1600" height="1000" viewBox="0 0 1600 1000" role="img" aria-label="Manga Stickers dark background">
  <defs>
    <linearGradient id="bg" x2="1" y2="1"><stop stop-color="#17101a"/><stop offset="1" stop-color="#24182a"/></linearGradient>
    <filter id="soft"><feDropShadow dx="0" dy="6" stdDeviation="8" flood-color="#000" flood-opacity=".35"/></filter>
  </defs>
  <rect width="1600" height="1000" fill="url(#bg)"/>
  <g opacity=".18" stroke="#ffe4f2" fill="none" stroke-width="2">
    <path d="M80 120h80M120 80v80"/><path d="M1480 180h60M1510 150v60"/><path d="M260 820h70M295 785v70"/><path d="M1200 780h80M1240 740v80"/>
  </g>
  <!-- stars -->
  <g filter="url(#soft)">
    <path d="M220 180l18 36 40 6-29 28 7 40-36-19-36 19 7-40-29-28 40-6z" fill="#ffd27a"/>
    <path d="M1320 240l14 28 31 5-22 22 5 31-28-15-28 15 5-31-22-22 31-5z" fill="#ff7eb6"/>
    <path d="M980 760l16 32 35 5-25 25 6 35-32-17-32 17 6-35-25-25 35-5z" fill="#7df0c8"/>
  </g>
  <!-- hearts -->
  <g filter="url(#soft)">
    <path d="M420 300c0-18 14-32 32-32 10 0 19 4 25 12 6-8 15-12 25-12 18 0 32 14 32 32 0 36-57 68-57 68s-57-32-57-68z" fill="#ff7eb6"/>
    <path d="M1180 620c0-14 11-25 25-25 8 0 15 3 20 9 5-6 12-9 20-9 14 0 25 11 25 25 0 28-45 53-45 53s-45-25-45-53z" fill="#ffd27a"/>
  </g>
  <!-- speech bubbles -->
  <g filter="url(#soft)">
    <rect x="680" y="180" width="210" height="120" rx="28" fill="#2a1c33" stroke="#ffe4f2" stroke-width="4"/>
    <path d="M760 300l-10 34 42-22z" fill="#2a1c33" stroke="#ffe4f2" stroke-width="4"/>
    <circle cx="740" cy="240" r="8" fill="#ffe4f2"/><circle cx="785" cy="240" r="8" fill="#ffe4f2"/><circle cx="830" cy="240" r="8" fill="#ffe4f2"/>
    <rect x="1080" y="420" width="170" height="96" rx="24" fill="#2a1c33" stroke="#ffe4f2" stroke-width="4"/>
    <path d="M1140 516l-8 28 34-18z" fill="#2a1c33" stroke="#ffe4f2" stroke-width="4"/>
    <text x="1120" y="478" font-family="Segoe UI, sans-serif" font-size="28" font-weight="700" fill="#ff7eb6">Nya!</text>
  </g>
  <!-- sparkles / stickers -->
  <g fill="none" stroke="#7df0c8" stroke-width="5" stroke-linecap="round">
    <path d="M560 560 600 520"/><path d="M560 520 600 560"/><path d="M1400 700 1440 660"/><path d="M1400 660 1440 700"/>
  </g>
  <circle cx="180" cy="640" r="28" fill="#7df0c8" opacity=".85"/>
  <circle cx="1500" cy="860" r="22" fill="#ff7eb6" opacity=".8"/>
  <rect x="300" y="700" width="70" height="70" rx="18" fill="#ffd27a" transform="rotate(-12 335 735)" opacity=".9"/>
</svg>