<svg xmlns="http://www.w3.org/2000/svg" width="1600" height="1000" viewBox="0 0 1600 1000" role="img" aria-label="Cat Cloud light background">
  <defs>
    <linearGradient id="bg" x2="0" y2="1"><stop stop-color="#eef7ff"/><stop offset="1" stop-color="#f7fbff"/></linearGradient>
    <filter id="soft"><feDropShadow dx="0" dy="8" stdDeviation="10" flood-opacity=".12"/></filter>
  </defs>
  <rect width="1600" height="1000" fill="url(#bg)"/>
  <g filter="url(#soft)" fill="#ffffff" stroke="#8aa7d8" stroke-width="4">
    <path d="M260 320c0-50 40-90 90-90 14 0 28 3 40 10 16-34 51-56 91-56 48 0 88 33 98 78 10-6 22-10 35-10 46 0 84 38 84 84 0 8-1 16-3 24H263c-2-8-3-16-3-24z"/>
    <path d="M980 420c0-44 35-80 80-80 12 0 24 3 34 8 14-30 45-50 80-50 42 0 77 29 86 68 9-5 19-8 30-8 40 0 72 32 72 72 0 7-1 14-3 20H983c-2-6-3-13-3-20z"/>
    <path d="M420 700c0-40 32-72 72-72 11 0 22 2 31 7 13-27 40-45 72-45 38 0 69 26 77 61 8-5 17-7 27-7 36 0 66 30 66 66 0 6-1 12-2 18H422c-1-6-2-12-2-18z"/>
  </g>
  <!-- cat ears on clouds -->
  <g fill="#ffffff" stroke="#8aa7d8" stroke-width="4">
    <path d="M330 240l28 48h-56z"/><path d="M410 235l28 48h-56z"/>
    <path d="M1080 348l24 42h-48z"/><path d="M1150 345l24 42h-48z"/>
  </g>
  <!-- faces -->
  <g fill="#8aa7d8">
    <circle cx="360" cy="310" r="5"/><circle cx="410" cy="310" r="5"/>
    <path d="M375 335c8 10 22 10 30 0" fill="none" stroke="#8aa7d8" stroke-width="4" stroke-linecap="round"/>
    <circle cx="1120" cy="410" r="4"/><circle cx="1160" cy="410" r="4"/>
    <path d="M1130 430c6 8 18 8 24 0" fill="none" stroke="#8aa7d8" stroke-width="3" stroke-linecap="round"/>
  </g>
  <!-- paw prints -->
  <g fill="#ff8fbf" opacity=".75">
    <circle cx="760" cy="260" r="10"/><circle cx="740" cy="245" r="6"/><circle cx="760" cy="238" r="6"/><circle cx="780" cy="245" r="6"/>
    <circle cx="1360" cy="620" r="12"/><circle cx="1338" cy="602" r="7"/><circle cx="1360" cy="594" r="7"/><circle cx="1382" cy="602" r="7"/>
    <circle cx="220" cy="760" r="11"/><circle cx="200" cy="742" r="6"/><circle cx="220" cy="734" r="6"/><circle cx="240" cy="742" r="6"/>
  </g>
</svg>