<svg xmlns="http://www.w3.org/2000/svg" width="1600" height="1000" viewBox="0 0 1600 1000" role="img" aria-label="Soda Pop dark background">
  <defs>
    <linearGradient id="bg" x2="1" y2="1"><stop stop-color="#101522"/><stop offset="1" stop-color="#182033"/></linearGradient>
    <linearGradient id="cup" x2="0" y2="1"><stop stop-color="#ff8fc4"/><stop offset="1" stop-color="#7ad7ff"/></linearGradient>
    <filter id="soft"><feDropShadow dx="0" dy="8" stdDeviation="10" flood-opacity=".35"/></filter>
  </defs>
  <rect width="1600" height="1000" fill="url(#bg)"/>
  <g fill="#8fd9ff" opacity=".35">
    <circle cx="180" cy="220" r="18"/><circle cx="320" cy="160" r="10"/><circle cx="520" cy="280" r="14"/>
    <circle cx="900" cy="180" r="16"/><circle cx="1120" cy="260" r="12"/><circle cx="1380" cy="140" r="20"/>
    <circle cx="240" cy="720" r="15"/><circle cx="640" cy="780" r="22"/><circle cx="980" cy="700" r="11"/>
    <circle cx="1280" cy="760" r="17"/><circle cx="1500" cy="620" r="13"/><circle cx="760" cy="420" r="9"/>
  </g>
  <g filter="url(#soft)">
    <rect x="700" y="360" width="170" height="230" rx="28" fill="url(#cup)" opacity=".92"/>
    <rect x="720" y="340" width="130" height="36" rx="16" fill="#fff" opacity=".85"/>
    <path d="M870 420c40 10 60 40 60 80s-20 70-60 80" fill="none" stroke="#ffe08a" stroke-width="12" stroke-linecap="round"/>
    <circle cx="430" cy="480" r="70" fill="#ffd27a" opacity=".9"/>
    <circle cx="1220" cy="480" r="58" fill="#8ef0c6" opacity=".9"/>
  </g>
  <g fill="none" stroke="#ffd27a" stroke-width="4" stroke-linecap="round">
    <path d="M260 420c20-40 20-40 40-80"/><path d="M1360 360c16-30 16-30 30-60"/><path d="M560 640c18-34 18-34 36-70"/>
  </g>
</svg>