<svg xmlns="http://www.w3.org/2000/svg" width="64" height="64" viewBox="0 0 64 64" role="img" aria-labelledby="title desc">
  <title id="title">橙子导航</title>
  <desc id="desc">Cyberpunk orange cat navigation mark.</desc>
  <defs>
    <linearGradient id="shell" x1="8" y1="10" x2="56" y2="54" gradientUnits="userSpaceOnUse">
      <stop offset="0" stop-color="#fff45c"/>
      <stop offset="0.36" stop-color="#fcee0a"/>
      <stop offset="0.72" stop-color="#ffb800"/>
      <stop offset="1" stop-color="#ff7a18"/>
    </linearGradient>
    <linearGradient id="cut" x1="16" y1="20" x2="50" y2="46" gradientUnits="userSpaceOnUse">
      <stop offset="0" stop-color="#111827"/>
      <stop offset="1" stop-color="#05070d"/>
    </linearGradient>
    <filter id="glow" x="-24%" y="-24%" width="148%" height="148%">
      <feGaussianBlur stdDeviation="2.4" result="blur"/>
      <feColorMatrix in="blur" type="matrix" values="0 0 0 0 0 0 0 0 0 .84 0 0 0 0 1 0 0 0 .75 0" result="cyan"/>
      <feMerge>
        <feMergeNode in="cyan"/>
        <feMergeNode in="SourceGraphic"/>
      </feMerge>
    </filter>
    <clipPath id="frameClip">
      <path d="M8 9h40l8 8v30L45 58H8V9Z"/>
    </clipPath>
  </defs>

  <path d="M11 12h38l6 6v27L43 56H11V12Z" fill="#00f0ff" opacity=".45" transform="translate(2 2)"/>
  <path d="M8 9h40l8 8v30L45 58H8V9Z" fill="url(#shell)" filter="url(#glow)"/>
  <g clip-path="url(#frameClip)">
    <path d="M-2 48 56 10" stroke="#00f0ff" stroke-width="3" opacity=".74"/>
    <path d="M6 55 62 18" stroke="#ff2a6d" stroke-width="2" opacity=".54"/>
    <path d="M38 9h18v18L38 9Z" fill="#ff2a6d" opacity=".82"/>
  </g>

  <path d="M18 25 24 16l5 9h8l5-9 6 9c3.2 4.7 3 11.4-.7 15.8-3.7 4.6-9 6.9-15.3 6.9s-11.6-2.3-15.3-6.9c-3.7-4.4-3.9-11.1-.7-15.8Z" fill="url(#cut)"/>
  <path d="M23 31h5v5h-5v-5Zm13 0h5v5h-5v-5Z" fill="#fcee0a"/>
  <path d="M31.6 35.3 25 44h7l-1.2 6 8.3-10.5h-7l-.5-4.2Z" fill="#00f0ff"/>
  <path d="M14 16h12M12 22h8M47 48h9" stroke="#111827" stroke-width="2.4" stroke-linecap="square" opacity=".78"/>
  <path d="M9 9h40l8 8" fill="none" stroke="#fffce1" stroke-width="1.6" opacity=".72"/>
</svg>
